<?xml version="1.0" standalone="no"?>
<!DOCTYPE svg PUBLIC "-//W3C//DTD SVG 20010904//EN"
 "http://www.w3.org/TR/2001/REC-SVG-20010904/DTD/svg10.dtd">
<svg version="1.0" xmlns="http://www.w3.org/2000/svg"
 width="512.000000pt" height="512.000000pt" viewBox="0 0 512.000000 512.000000"
 preserveAspectRatio="xMidYMid meet">
<metadata>
Created by potrace 1.11, written by Peter Selinger 2001-2013
</metadata>
<g transform="translate(0.000000,512.000000) scale(0.100000,-0.100000)"
fill="#000000" stroke="none">
<path d="M3398 5115 c-2 -1 -30 -6 -63 -9 -149 -17 -379 -90 -528 -170 -77
-40 -226 -140 -273 -183 -17 -15 -42 -37 -55 -49 -96 -81 -245 -273 -318 -409
-18 -33 -35 -63 -38 -68 -2 -4 -16 1 -31 11 -82 57 -243 67 -342 21 -81 -39
-144 -99 -182 -177 -31 -62 -33 -74 -33 -167 0 -90 3 -106 28 -158 16 -32 54
-84 85 -116 32 -33 67 -70 80 -83 l22 -25 -48 -89 c-27 -49 -70 -129 -97 -179
-26 -49 -60 -112 -75 -140 -15 -27 -76 -140 -135 -250 -59 -110 -120 -222
-135 -250 -15 -27 -54 -99 -86 -160 -32 -60 -70 -132 -85 -160 -15 -27 -34
-61 -42 -75 -7 -14 -44 -83 -81 -155 -38 -71 -73 -134 -77 -139 -15 -17 -10
-72 9 -91 17 -18 16 -21 -18 -87 -30 -58 -39 -68 -60 -66 -60 4 -58 7 -217
-290 -46 -85 -96 -178 -125 -232 -14 -25 -48 -88 -76 -140 -58 -109 -122 -229
-282 -525 -124 -230 -135 -268 -104 -358 32 -92 104 -140 209 -141 69 -1 71 0
235 89 91 49 183 99 205 112 22 12 49 27 61 32 11 5 65 34 120 64 54 30 140
76 189 102 50 26 171 92 270 145 99 53 221 118 270 145 50 26 108 58 130 70
22 12 76 42 120 65 44 24 105 56 135 72 30 17 89 48 130 70 41 22 89 48 105
58 17 10 73 40 125 67 52 28 239 128 415 223 176 95 358 193 405 218 47 24
105 56 130 70 25 13 95 51 156 83 l112 59 79 -78 c49 -48 103 -90 139 -108 53
-26 68 -29 159 -29 87 0 107 3 155 26 82 39 144 99 182 177 30 61 33 74 33
162 0 84 -3 102 -29 158 -16 34 -27 64 -25 66 2 2 31 18 64 37 177 97 384 274
502 429 137 179 245 415 287 627 9 43 18 92 22 108 10 51 12 347 3 413 -12 83
-19 123 -25 144 -3 9 -7 25 -9 36 -10 53 -51 175 -86 255 -149 343 -423 629
-762 792 -91 43 -219 91 -287 106 -19 4 -46 10 -60 13 -13 3 -40 8 -60 11 -20
3 -47 8 -60 11 -26 6 -356 14 -362 9z"/>
</g>
</svg>
